{
  "accessors": [
    {
      "bufferView": 2,
      "componentType": 5126,
      "count": 9292,
      "max": [
        17.760562896728516,
        17.193819046020508,
        23.51853370666504
      ],
      "min": [
        -8.002728462219238,
        -6.893572807312012,
        0.295648992061615
      ],
      "type": "VEC3"
    },
    {
      "bufferView": 2,
      "byteOffset": 111504,
      "componentType": 5126,
      "count": 9292,
      "max": [
        1.0,
        1.0,
        0.7900720238685608
      ],
      "min": [
        -1.0,
        -1.0,
        -1.0
      ],
      "type": "VEC3"
    },
    {
      "bufferView": 1,
      "componentType": 5126,
      "count": 9292,
      "max": [
        0.8257380127906799,
        0.972495973110199
      ],
      "min": [
        0.27346500754356384,
        0.12233699858188629
      ],
      "type": "VEC2"
    },
    {
      "bufferView": 0,
      "componentType": 5125,
      "count": 20928,
      "type": "SCALAR"
    },
    {
      "bufferView": 2,
      "byteOffset": 223008,
      "componentType": 5126,
      "count": 9286,
      "max": [
        12.518786430358887,
        17.106426239013672,
        19.947418212890625
      ],
      "min": [
        -8.055802345275879,
        -10.506972312927246,
        -0.017635999247431755
      ],
      "type": "VEC3"
    },
    {
      "bufferView": 2,
      "byteOffset": 334440,
      "componentType": 5126,
      "count": 9286,
      "max": [
        1.0,
        1.0,
        1.0
      ],
      "min": [
        -1.0,
        -1.0,
        -1.0
      ],
      "type": "VEC3"
    },
    {
      "bufferView": 1,
      "byteOffset": 74336,
      "componentType": 5126,
      "count": 9286,
      "max": [
        0.9518870115280151,
        0.9704300165176392
      ],
      "min": [
        0.02029700018465519,
        0.0618400014936924
      ],
      "type": "VEC2"
    },
    {
      "bufferView": 0,
      "byteOffset": 83712,
      "componentType": 5125,
      "count": 18288,
      "type": "SCALAR"
    },
    {
      "bufferView": 2,
      "byteOffset": 445872,
      "componentType": 5126,
      "count": 8952,
      "max": [
        4.155247211456299,
        17.416025161743164,
        10.031807899475098
      ],
      "min": [
        -8.055802345275879,
        -7.203174114227295,
        1.605586051940918
      ],
      "type": "VEC3"
    },
    {
      "bufferView": 2,
      "byteOffset": 553296,
      "componentType": 5126,
      "count": 8952,
      "max": [
        1.0,
        1.0,
        0.9802042245864868
      ],
      "min": [
        -1.0,
        -1.0,
        -1.0
      ],
      "type": "VEC3"
    },
    {
      "bufferView": 1,
      "byteOffset": 148624,
      "componentType": 5126,
      "count": 8952,
      "max": [
        0.8214160203933716,
        0.652396023273468
      ],
      "min": [
        0.02029700018465519,
        0.12820599973201752
      ],
      "type": "VEC2"
    },
    {
      "bufferView": 0,
      "byteOffset": 156864,
      "componentType": 5125,
      "count": 16356,
      "type": "SCALAR"
    },
    {
      "bufferView": 2,
      "byteOffset": 660720,
      "componentType": 5126,
      "count": 8884,
      "max": [
        8.225598335266113,
        17.416025161743164,
        10.031807899475098
      ],
      "min": [
        -7.915102005004883,
        -7.203174114227295,
        0.5988590121269226
      ],
      "type": "VEC3"
    },
    {
      "bufferView": 2,
      "byteOffset": 767328,
      "componentType": 5126,
      "count": 8884,
      "max": [
        1.0,
        1.0,
        1.0
      ],
      "min": [
        -1.0,
        -1.0,
        -1.0
      ],
      "type": "VEC3"
    },
    {
      "bufferView": 1,
      "byteOffset": 220240,
      "componentType": 5126,
      "count": 8884,
      "max": [
        0.9518870115280151,
        0.6524059772491455
      ],
      "min": [
        0.02029700018465519,
        0.41579800844192505
      ],
      "type": "VEC2"
    },
    {
      "bufferView": 0,
      "byteOffset": 222288,
      "componentType": 5125,
      "count": 16362,
      "type": "SCALAR"
    },
    {
      "bufferView": 2,
      "byteOffset": 873936,
      "componentType": 5126,
      "count": 8710,
      "max": [
        8.225598335266113,
        17.416025161743164,
        10.031807899475098
      ],
      "min": [
        -4.056787014007568,
        -6.981072902679443,
        0.5988590121269226
      ],
      "type": "VEC3"
    },
    {
      "bufferView": 2,
      "byteOffset": 978456,
      "componentType": 5126,
      "count": 8710,
      "max": [
        1.0,
        1.0,
        1.0
      ],
      "min": [
        -1.0,
        -1.0,
        -1.0
      ],
      "type": "VEC3"
    },
    {
      "bufferView": 1,
      "byteOffset": 291312,
      "componentType": 5126,
      "count": 8710,
      "max": [
        0.9518870115280151,
        0.6931430101394653
      ],
      "min": [
        0.02029700018465519,
        0.13460299372673035
      ],
      "type": "VEC2"
    },
    {
      "bufferView": 0,
      "byteOffset": 287736,
      "componentType": 5125,
      "count": 15822,
      "type": "SCALAR"
    },
    {
      "bufferView": 2,
      "byteOffset": 1082976,
      "componentType": 5126,
      "count": 9674,
      "max": [
        15.342521667480469,
        17.416025161743164,
        11.501110076904297
      ],
      "min": [
        -7.915102005004883,
        -10.467021942138672,
        -0.2193010002374649
      ],
      "type": "VEC3"
    },
    {
      "bufferView": 2,
      "byteOffset": 1199064,
      "componentType": 5126,
      "count": 9674,
      "max": [
        1.0,
        1.0,
        1.0
      ],
      "min": [
        -1.0,
        -1.0,
        -1.0
      ],
      "type": "VEC3"
    },
    {
      "bufferView": 1,
      "byteOffset": 360992,
      "componentType": 5126,
      "count": 9674,
      "max": [
        0.9518870115280151,
        0.9704300165176392
      ],
      "min": [
        0.02029700018465519,
        0.12233900278806686
      ],
      "type": "VEC2"
    },
    {
      "bufferView": 0,
      "byteOffset": 351024,
      "componentType": 5125,
      "count": 18966,
      "type": "SCALAR"
    },
    {
      "bufferView": 2,
      "byteOffset": 1315152,
      "componentType": 5126,
      "count": 5974,
      "max": [
        15.21140193939209,
        17.193693161010742,
        19.47810173034668
      ],
      "min": [
        -8.002601623535156,
        -10.467147827148438,
        -0.2193010002374649
      ],
      "type": "VEC3"
    },
    {
      "bufferView": 2,
      "byteOffset": 1386840,
      "componentType": 5126,
      "count": 5974,
      "max": [
        1.0,
        1.0,
        1.0
      ],
      "min": [
        -1.0,
        -1.0,
        -1.0
      ],
      "type": "VEC3"
    },
    {
      "bufferView": 1,
      "byteOffset": 438384,
      "componentType": 5126,
      "count": 5974,
      "max": [
        0.9518870115280151,
        0.9422979950904846
      ],
      "min": [
        0.04094099998474121,
        0.04123900085687637
      ],
      "type": "VEC2"
    },
    {
      "bufferView": 0,
      "byteOffset": 426888,
      "componentType": 5125,
      "count": 13416,
      "type": "SCALAR"
    }
  ],
  "asset": {
    "extras": {
      "author": "davidoloul (https://sketchfab.com/davidoloul)",
      "license": "CC-BY-4.0 (http://creativecommons.org/licenses/by/4.0/)",
      "source": "https://sketchfab.com/3d-models/iglesia-modular-f74b21369d8a4aac96330b026e3c7b61",
      "title": "iglesia modular"
    },
    "generator": "Sketchfab-12.68.0",
    "version": "2.0"
  },
  "bufferViews": [
    {
      "buffer": 0,
      "byteLength": 480552,
      "name": "floatBufferViews",
      "target": 34963
    },
    {
      "buffer": 0,
      "byteLength": 486176,
      "byteOffset": 480552,
      "byteStride": 8,
      "name": "floatBufferViews",
      "target": 34962
    },
    {
      "buffer": 0,
      "byteLength": 1458528,
      "byteOffset": 966728,
      "byteStride": 12,
      "name": "floatBufferViews",
      "target": 34962
    }
  ],
  "buffers": [
    {
      "byteLength": 2425256,
      "uri": "scene.bin"
    }
  ],
  "images": [
    {
      "uri": "textures/initialShadingGroup_baseColor.png"
    }
  ],
  "materials": [
    {
      "doubleSided": true,
      "name": "initialShadingGroup",
      "pbrMetallicRoughness": {
        "baseColorTexture": {
          "index": 0
        },
        "metallicFactor": 0.0,
        "roughnessFactor": 0.6
      }
    }
  ],
  "meshes": [
    {
      "name": "Object_0",
      "primitives": [
        {
          "attributes": {
            "NORMAL": 1,
            "POSITION": 0,
            "TEXCOORD_0": 2
          },
          "indices": 3,
          "material": 0,
          "mode": 4
        }
      ]
    },
    {
      "name": "Object_1",
      "primitives": [
        {
          "attributes": {
            "NORMAL": 5,
            "POSITION": 4,
            "TEXCOORD_0": 6
          },
          "indices": 7,
          "material": 0,
          "mode": 4
        }
      ]
    },
    {
      "name": "Object_2",
      "primitives": [
        {
          "attributes": {
            "NORMAL": 9,
            "POSITION": 8,
            "TEXCOORD_0": 10
          },
          "indices": 11,
          "material": 0,
          "mode": 4
        }
      ]
    },
    {
      "name": "Object_3",
      "primitives": [
        {
          "attributes": {
            "NORMAL": 13,
            "POSITION": 12,
            "TEXCOORD_0": 14
          },
          "indices": 15,
          "material": 0,
          "mode": 4
        }
      ]
    },
    {
      "name": "Object_4",
      "primitives": [
        {
          "attributes": {
            "NORMAL": 17,
            "POSITION": 16,
            "TEXCOORD_0": 18
          },
          "indices": 19,
          "material": 0,
          "mode": 4
        }
      ]
    },
    {
      "name": "Object_5",
      "primitives": [
        {
          "attributes": {
            "NORMAL": 21,
            "POSITION": 20,
            "TEXCOORD_0": 22
          },
          "indices": 23,
          "material": 0,
          "mode": 4
        }
      ]
    },
    {
      "name": "Object_6",
      "primitives": [
        {
          "attributes": {
            "NORMAL": 25,
            "POSITION": 24,
            "TEXCOORD_0": 26
          },
          "indices": 27,
          "material": 0,
          "mode": 4
        }
      ]
    }
  ],
  "nodes": [
    {
      "children": [
        1
      ],
      "matrix": [
        1.0,
        0.0,
        0.0,
        0.0,
        0.0,
        2.220446049250313e-16,
        -1.0,
        0.0,
        0.0,
        1.0,
        2.220446049250313e-16,
        0.0,
        0.0,
        0.0,
        0.0,
        1.0
      ],
      "name": "Sketchfab_model"
    },
    {
      "children": [
        2,
        3,
        4,
        5,
        6,
        7,
        8
      ],
      "name": "iglesia modular.obj.cleaner.materialmerger.gles"
    },
    {
      "mesh": 0,
      "name": "Object_2"
    },
    {
      "mesh": 1,
      "name": "Object_3"
    },
    {
      "mesh": 2,
      "name": "Object_4"
    },
    {
      "mesh": 3,
      "name": "Object_5"
    },
    {
      "mesh": 4,
      "name": "Object_6"
    },
    {
      "mesh": 5,
      "name": "Object_7"
    },
    {
      "mesh": 6,
      "name": "Object_8"
    }
  ],
  "samplers": [
    {
      "magFilter": 9729,
      "minFilter": 9987,
      "wrapS": 10497,
      "wrapT": 10497
    }
  ],
  "scene": 0,
  "scenes": [
    {
      "name": "Sketchfab_Scene",
      "nodes": [
        0
      ]
    }
  ],
  "textures": [
    {
      "sampler": 0,
      "source": 0
    }
  ]
}
