{
  "accessors": [
    {
      "bufferView": 2,
      "componentType": 5126,
      "count": 9976,
      "max": [
        22.156713485717773,
        9.9290771484375,
        26.49299430847168
      ],
      "min": [
        4.781864166259766,
        -9.929065704345703,
        8.238962173461914
      ],
      "type": "VEC3"
    },
    {
      "bufferView": 2,
      "byteOffset": 119712,
      "componentType": 5126,
      "count": 9976,
      "max": [
        0.9998719096183777,
        1.0,
        0.999991774559021
      ],
      "min": [
        -0.9999899864196777,
        -1.0,
        -1.0
      ],
      "type": "VEC3"
    },
    {
      "bufferView": 3,
      "componentType": 5126,
      "count": 9976,
      "max": [
        1.0,
        0.9999992251396179,
        1.0,
        1.0
      ],
      "min": [
        -0.9990350008010864,
        -0.9999995231628418,
        -1.0,
        -1.0
      ],
      "type": "VEC4"
    },
    {
      "bufferView": 1,
      "componentType": 5126,
      "count": 9976,
      "max": [
        0.9586640000343323,
        0.9980080127716064
      ],
      "min": [
        0.0019359999569132924,
        0.0019920000340789557
      ],
      "type": "VEC2"
    },
    {
      "bufferView": 0,
      "componentType": 5125,
      "count": 44832,
      "type": "SCALAR"
    },
    {
      "bufferView": 2,
      "byteOffset": 239424,
      "componentType": 5126,
      "count": 9434,
      "max": [
        22.156713485717773,
        3.417344093322754,
        16.23040199279785
      ],
      "min": [
        -14.23044204711914,
        -3.417344093322754,
        0.035875000059604645
      ],
      "type": "VEC3"
    },
    {
      "bufferView": 2,
      "byteOffset": 352632,
      "componentType": 5126,
      "count": 9434,
      "max": [
        1.0,
        1.0,
        0.9999948740005493
      ],
      "min": [
        -1.0,
        -1.0,
        -0.9999948740005493
      ],
      "type": "VEC3"
    },
    {
      "bufferView": 3,
      "byteOffset": 159616,
      "componentType": 5126,
      "count": 9434,
      "max": [
        1.0,
        1.0,
        1.0,
        1.0
      ],
      "min": [
        -0.9998282790184021,
        -1.0,
        -1.0,
        -1.0
      ],
      "type": "VEC4"
    },
    {
      "bufferView": 1,
      "byteOffset": 79808,
      "componentType": 5126,
      "count": 9434,
      "max": [
        0.9701160192489624,
        0.9977329969406128
      ],
      "min": [
        0.02140199951827526,
        0.0019920000340789557
      ],
      "type": "VEC2"
    },
    {
      "bufferView": 0,
      "byteOffset": 179328,
      "componentType": 5125,
      "count": 42540,
      "type": "SCALAR"
    },
    {
      "bufferView": 2,
      "byteOffset": 465840,
      "componentType": 5126,
      "count": 9405,
      "max": [
        18.978160858154297,
        4.927196979522705,
        22.843406677246094
      ],
      "min": [
        -11.32470703125,
        -4.927000999450684,
        4.103546142578125
      ],
      "type": "VEC3"
    },
    {
      "bufferView": 2,
      "byteOffset": 578700,
      "componentType": 5126,
      "count": 9405,
      "max": [
        0.9999722242355347,
        1.0,
        0.9999627470970154
      ],
      "min": [
        -0.9999224543571472,
        -1.0,
        -0.9999759793281555
      ],
      "type": "VEC3"
    },
    {
      "bufferView": 3,
      "byteOffset": 310560,
      "componentType": 5126,
      "count": 9405,
      "max": [
        1.0,
        1.0,
        1.0,
        1.0
      ],
      "min": [
        -0.9985049366950989,
        -1.0,
        -1.0,
        -1.0
      ],
      "type": "VEC4"
    },
    {
      "bufferView": 1,
      "byteOffset": 155280,
      "componentType": 5126,
      "count": 9405,
      "max": [
        0.9701160192489624,
        0.9970729947090149
      ],
      "min": [
        0.0019359999569132924,
        0.0019920000340789557
      ],
      "type": "VEC2"
    },
    {
      "bufferView": 0,
      "byteOffset": 349488,
      "componentType": 5125,
      "count": 42264,
      "type": "SCALAR"
    },
    {
      "bufferView": 2,
      "byteOffset": 691560,
      "componentType": 5126,
      "count": 9839,
      "max": [
        31.896209716796875,
        5.216344833374023,
        24.142478942871094
      ],
      "min": [
        1.9554239511489868,
        -5.216344833374023,
        -0.09991300106048584
      ],
      "type": "VEC3"
    },
    {
      "bufferView": 2,
      "byteOffset": 809628,
      "componentType": 5126,
      "count": 9839,
      "max": [
        0.9999995231628418,
        1.0,
        0.9998950958251953
      ],
      "min": [
        -0.9999764561653137,
        -1.0,
        -0.9999337792396545
      ],
      "type": "VEC3"
    },
    {
      "bufferView": 3,
      "byteOffset": 461040,
      "componentType": 5126,
      "count": 9839,
      "max": [
        1.0,
        1.0,
        1.0,
        1.0
      ],
      "min": [
        -0.9994565844535828,
        -1.0,
        -1.0,
        -1.0
      ],
      "type": "VEC4"
    },
    {
      "bufferView": 1,
      "byteOffset": 230520,
      "componentType": 5126,
      "count": 9839,
      "max": [
        0.9701160192489624,
        0.9979310035705566
      ],
      "min": [
        0.0019359999569132924,
        0.0019920000340789557
      ],
      "type": "VEC2"
    },
    {
      "bufferView": 0,
      "byteOffset": 518544,
      "componentType": 5125,
      "count": 43824,
      "type": "SCALAR"
    }
  ],
  "asset": {
    "extras": {
      "author": "Nive (https://sketchfab.com/Nive)",
      "license": "CC-BY-4.0 (http://creativecommons.org/licenses/by/4.0/)",
      "source": "https://sketchfab.com/3d-models/moto-004-1373e62f97004a949fea427ba58ecba6",
      "title": "Moto 004"
    },
    "generator": "Sketchfab-12.65.0",
    "version": "2.0"
  },
  "bufferViews": [
    {
      "buffer": 0,
      "byteLength": 693840,
      "name": "floatBufferViews",
      "target": 34963
    },
    {
      "buffer": 0,
      "byteLength": 309232,
      "byteOffset": 693840,
      "byteStride": 8,
      "name": "floatBufferViews",
      "target": 34962
    },
    {
      "buffer": 0,
      "byteLength": 927696,
      "byteOffset": 1003072,
      "byteStride": 12,
      "name": "floatBufferViews",
      "target": 34962
    },
    {
      "buffer": 0,
      "byteLength": 618464,
      "byteOffset": 1930768,
      "byteStride": 16,
      "name": "floatBufferViews",
      "target": 34962
    }
  ],
  "buffers": [
    {
      "byteLength": 2549232,
      "uri": "scene.bin"
    }
  ],
  "images": [
    {
      "uri": "textures/rsMaterial1SG_baseColor.png"
    },
    {
      "uri": "textures/rsMaterial1SG_metallicRoughness.png"
    },
    {
      "uri": "textures/rsMaterial1SG_normal.png"
    }
  ],
  "materials": [
    {
      "doubleSided": true,
      "name": "rsMaterial1SG",
      "normalTexture": {
        "index": 2
      },
      "pbrMetallicRoughness": {
        "baseColorTexture": {
          "index": 0
        },
        "metallicRoughnessTexture": {
          "index": 1
        }
      }
    }
  ],
  "meshes": [
    {
      "name": "Object_0",
      "primitives": [
        {
          "attributes": {
            "NORMAL": 1,
            "POSITION": 0,
            "TANGENT": 2,
            "TEXCOORD_0": 3
          },
          "indices": 4,
          "material": 0,
          "mode": 4
        }
      ]
    },
    {
      "name": "Object_1",
      "primitives": [
        {
          "attributes": {
            "NORMAL": 6,
            "POSITION": 5,
            "TANGENT": 7,
            "TEXCOORD_0": 8
          },
          "indices": 9,
          "material": 0,
          "mode": 4
        }
      ]
    },
    {
      "name": "Object_2",
      "primitives": [
        {
          "attributes": {
            "NORMAL": 11,
            "POSITION": 10,
            "TANGENT": 12,
            "TEXCOORD_0": 13
          },
          "indices": 14,
          "material": 0,
          "mode": 4
        }
      ]
    },
    {
      "name": "Object_3",
      "primitives": [
        {
          "attributes": {
            "NORMAL": 16,
            "POSITION": 15,
            "TANGENT": 17,
            "TEXCOORD_0": 18
          },
          "indices": 19,
          "material": 0,
          "mode": 4
        }
      ]
    }
  ],
  "nodes": [
    {
      "children": [
        1
      ],
      "matrix": [
        1.0,
        0.0,
        0.0,
        0.0,
        0.0,
        2.220446049250313e-16,
        -1.0,
        0.0,
        0.0,
        1.0,
        2.220446049250313e-16,
        0.0,
        0.0,
        0.0,
        0.0,
        1.0
      ],
      "name": "Sketchfab_model"
    },
    {
      "children": [
        2,
        3,
        4,
        5
      ],
      "name": "Moto_004.obj.cleaner.materialmerger.gles"
    },
    {
      "mesh": 0,
      "name": "Object_2"
    },
    {
      "mesh": 1,
      "name": "Object_3"
    },
    {
      "mesh": 2,
      "name": "Object_4"
    },
    {
      "mesh": 3,
      "name": "Object_5"
    }
  ],
  "samplers": [
    {
      "magFilter": 9729,
      "minFilter": 9987,
      "wrapS": 10497,
      "wrapT": 10497
    }
  ],
  "scene": 0,
  "scenes": [
    {
      "name": "Sketchfab_Scene",
      "nodes": [
        0
      ]
    }
  ],
  "textures": [
    {
      "sampler": 0,
      "source": 0
    },
    {
      "sampler": 0,
      "source": 1
    },
    {
      "sampler": 0,
      "source": 2
    }
  ]
}
