{
  "accessors": [
    {
      "bufferView": 2,
      "componentType": 5126,
      "count": 11939,
      "max": [
        46.35116195678711,
        105.46250915527344,
        2.606750249862671
      ],
      "min": [
        -55.28376770019531,
        -33.216224670410156,
        -149.3052520751953
      ],
      "type": "VEC3"
    },
    {
      "bufferView": 2,
      "byteOffset": 143268,
      "componentType": 5126,
      "count": 11939,
      "max": [
        0.9998728632926941,
        0.999484121799469,
        0.9999990463256836
      ],
      "min": [
        -0.999995768070221,
        -0.9993801116943359,
        -0.9999710321426392
      ],
      "type": "VEC3"
    },
    {
      "bufferView": 3,
      "componentType": 5126,
      "count": 11939,
      "max": [
        0.9999900460243225,
        0.9994815587997437,
        0.9999886751174927,
        1.0
      ],
      "min": [
        -0.9999389052391052,
        -0.9999011158943176,
        -0.9999483823776245,
        -1.0
      ],
      "type": "VEC4"
    },
    {
      "bufferView": 1,
      "componentType": 5126,
      "count": 11939,
      "max": [
        0.9900000095367432,
        0.9987810254096985
      ],
      "min": [
        0.007753000129014254,
        0.009999990463256836
      ],
      "type": "VEC2"
    },
    {
      "bufferView": 1,
      "byteOffset": 95512,
      "componentType": 5126,
      "count": 11939,
      "max": [
        0.9900000095367432,
        0.9987810254096985
      ],
      "min": [
        0.007753000129014254,
        0.009999990463256836
      ],
      "type": "VEC2"
    },
    {
      "bufferView": 1,
      "byteOffset": 191024,
      "componentType": 5126,
      "count": 11939,
      "max": [
        0.9900000095367432,
        0.9987810254096985
      ],
      "min": [
        0.007753000129014254,
        0.009999990463256836
      ],
      "type": "VEC2"
    },
    {
      "bufferView": 1,
      "byteOffset": 286536,
      "componentType": 5126,
      "count": 11939,
      "max": [
        0.9900000095367432,
        0.9987810254096985
      ],
      "min": [
        0.007753000129014254,
        0.009999990463256836
      ],
      "type": "VEC2"
    },
    {
      "bufferView": 0,
      "componentType": 5125,
      "count": 61500,
      "type": "SCALAR"
    }
  ],
  "asset": {
    "extras": {
      "author": "hendrikReyneke (https://sketchfab.com/hendrikReyneke)",
      "license": "CC-BY-4.0 (http://creativecommons.org/licenses/by/4.0/)",
      "source": "https://sketchfab.com/3d-models/gorilla-d8df49f051224c1880d061bca05f7ff4",
      "title": "Gorilla"
    },
    "generator": "Sketchfab-12.68.0",
    "version": "2.0"
  },
  "bufferViews": [
    {
      "buffer": 0,
      "byteLength": 246000,
      "name": "floatBufferViews",
      "target": 34963
    },
    {
      "buffer": 0,
      "byteLength": 382048,
      "byteOffset": 246000,
      "byteStride": 8,
      "name": "floatBufferViews",
      "target": 34962
    },
    {
      "buffer": 0,
      "byteLength": 286536,
      "byteOffset": 628048,
      "byteStride": 12,
      "name": "floatBufferViews",
      "target": 34962
    },
    {
      "buffer": 0,
      "byteLength": 191024,
      "byteOffset": 914584,
      "byteStride": 16,
      "name": "floatBufferViews",
      "target": 34962
    }
  ],
  "buffers": [
    {
      "byteLength": 1105608,
      "uri": "scene.bin"
    }
  ],
  "images": [
    {
      "uri": "textures/Gorilla_Mat_baseColor.png"
    },
    {
      "uri": "textures/Gorilla_Mat_metallicRoughness.png"
    },
    {
      "uri": "textures/Gorilla_Mat_normal.png"
    }
  ],
  "materials": [
    {
      "doubleSided": true,
      "name": "Gorilla_Mat",
      "normalTexture": {
        "index": 2
      },
      "pbrMetallicRoughness": {
        "baseColorTexture": {
          "index": 0
        },
        "metallicFactor": 0.5,
        "metallicRoughnessTexture": {
          "index": 1
        }
      }
    }
  ],
  "meshes": [
    {
      "name": "Object_0",
      "primitives": [
        {
          "attributes": {
            "NORMAL": 1,
            "POSITION": 0,
            "TANGENT": 2,
            "TEXCOORD_0": 3,
            "TEXCOORD_1": 4,
            "TEXCOORD_2": 5,
            "TEXCOORD_3": 6
          },
          "indices": 7,
          "material": 0,
          "mode": 4
        }
      ]
    }
  ],
  "nodes": [
    {
      "children": [
        1
      ],
      "matrix": [
        1.0,
        0.0,
        0.0,
        0.0,
        0.0,
        2.220446049250313e-16,
        -1.0,
        0.0,
        0.0,
        1.0,
        2.220446049250313e-16,
        0.0,
        0.0,
        0.0,
        0.0,
        1.0
      ],
      "name": "Sketchfab_model"
    },
    {
      "children": [
        2
      ],
      "name": "root"
    },
    {
      "children": [
        3
      ],
      "matrix": [
        1.0,
        0.0,
        0.0,
        0.0,
        0.0,
        2.220446049250313e-16,
        1.0,
        0.0,
        0.0,
        -1.0,
        2.220446049250313e-16,
        0.0,
        0.0,
        0.0,
        0.0,
        1.0
      ],
      "name": "GLTF_SceneRootNode"
    },
    {
      "children": [
        4
      ],
      "matrix": [
        0.0009999871253967285,
        0.0,
        0.0,
        0.0,
        0.0,
        0.0,
        0.0009999871253967285,
        0.0,
        0.0,
        -0.0009999871253967285,
        0.0,
        0.0,
        0.0,
        0.0,
        0.0,
        1.0
      ],
      "name": "Gorilla_SHP_0"
    },
    {
      "mesh": 0,
      "name": "Object_4"
    }
  ],
  "samplers": [
    {
      "magFilter": 9729,
      "minFilter": 9987,
      "wrapS": 10497,
      "wrapT": 10497
    }
  ],
  "scene": 0,
  "scenes": [
    {
      "name": "Sketchfab_Scene",
      "nodes": [
        0
      ]
    }
  ],
  "textures": [
    {
      "sampler": 0,
      "source": 0
    },
    {
      "sampler": 0,
      "source": 1
    },
    {
      "sampler": 0,
      "source": 2
    }
  ]
}
