{
  "accessors": [
    {
      "bufferView": 2,
      "componentType": 5126,
      "count": 2933,
      "max": [
        0.4777197241783142,
        0.4702954590320587,
        0.49495619535446167
      ],
      "min": [
        -0.5379534363746643,
        -0.7699100971221924,
        -0.5151535272598267
      ],
      "type": "VEC3"
    },
    {
      "bufferView": 2,
      "byteOffset": 35196,
      "componentType": 5126,
      "count": 2933,
      "max": [
        0.9998041987419128,
        0.9999996423721313,
        0.9999778270721436
      ],
      "min": [
        -0.999477744102478,
        -0.9989246726036072,
        -0.9993714094161987
      ],
      "type": "VEC3"
    },
    {
      "bufferView": 3,
      "componentType": 5126,
      "count": 2933,
      "max": [
        0.9999833106994629,
        0.999858558177948,
        0.9541431069374084,
        1.0
      ],
      "min": [
        -0.843709409236908,
        -0.993280291557312,
        -0.9908798336982727,
        1.0
      ],
      "type": "VEC4"
    },
    {
      "bufferView": 3,
      "byteOffset": 46928,
      "componentType": 5126,
      "count": 2933,
      "max": [
        1.0,
        1.0,
        1.0,
        0.0
      ],
      "min": [
        0.929411768913269,
        0.9333333373069763,
        0.9333333373069763,
        0.0
      ],
      "type": "VEC4"
    },
    {
      "bufferView": 1,
      "componentType": 5126,
      "count": 2933,
      "max": [
        0.9992376565933228,
        0.683906078338623
      ],
      "min": [
        0.00013168399163987488,
        0.000407607905799523
      ],
      "type": "VEC2"
    },
    {
      "bufferView": 1,
      "byteOffset": 23464,
      "componentType": 5126,
      "count": 2933,
      "max": [
        0.9992376565933228,
        0.683906078338623
      ],
      "min": [
        0.00013168399163987488,
        0.000407607905799523
      ],
      "type": "VEC2"
    },
    {
      "bufferView": 1,
      "byteOffset": 46928,
      "componentType": 5126,
      "count": 2933,
      "max": [
        0.9992376565933228,
        0.683906078338623
      ],
      "min": [
        0.00013168399163987488,
        0.000407607905799523
      ],
      "type": "VEC2"
    },
    {
      "bufferView": 1,
      "byteOffset": 70392,
      "componentType": 5126,
      "count": 2933,
      "max": [
        0.9992376565933228,
        0.683906078338623
      ],
      "min": [
        0.00013168399163987488,
        0.000407607905799523
      ],
      "type": "VEC2"
    },
    {
      "bufferView": 0,
      "componentType": 5125,
      "count": 15048,
      "type": "SCALAR"
    },
    {
      "bufferView": 2,
      "byteOffset": 70392,
      "componentType": 5126,
      "count": 2952,
      "max": [
        0.5213491320610046,
        0.5000000596046448,
        0.5611723065376282
      ],
      "min": [
        -0.5213491916656494,
        -0.5184820890426636,
        -0.5360371470451355
      ],
      "type": "VEC3"
    },
    {
      "bufferView": 2,
      "byteOffset": 105816,
      "componentType": 5126,
      "count": 2952,
      "max": [
        0.9997732639312744,
        1.0,
        0.9993286728858948
      ],
      "min": [
        -0.9990023374557495,
        -0.9999899864196777,
        -0.999771237373352
      ],
      "type": "VEC3"
    },
    {
      "bufferView": 3,
      "byteOffset": 93856,
      "componentType": 5126,
      "count": 2952,
      "max": [
        1.0,
        1.0,
        1.0,
        0.0
      ],
      "min": [
        0.929411768913269,
        0.9333333373069763,
        0.9333333373069763,
        0.0
      ],
      "type": "VEC4"
    },
    {
      "bufferView": 1,
      "byteOffset": 93856,
      "componentType": 5126,
      "count": 2952,
      "max": [
        0.9992376565933228,
        0.683906078338623
      ],
      "min": [
        0.00013168399163987488,
        0.000407607905799523
      ],
      "type": "VEC2"
    },
    {
      "bufferView": 1,
      "byteOffset": 117472,
      "componentType": 5126,
      "count": 2952,
      "max": [
        0.9992376565933228,
        0.683906078338623
      ],
      "min": [
        0.00013168399163987488,
        0.000407607905799523
      ],
      "type": "VEC2"
    },
    {
      "bufferView": 1,
      "byteOffset": 141088,
      "componentType": 5126,
      "count": 2952,
      "max": [
        0.9992376565933228,
        0.683906078338623
      ],
      "min": [
        0.00013168399163987488,
        0.000407607905799523
      ],
      "type": "VEC2"
    },
    {
      "bufferView": 1,
      "byteOffset": 164704,
      "componentType": 5126,
      "count": 2952,
      "max": [
        0.9992376565933228,
        0.683906078338623
      ],
      "min": [
        0.00013168399163987488,
        0.000407607905799523
      ],
      "type": "VEC2"
    },
    {
      "bufferView": 0,
      "byteOffset": 60192,
      "componentType": 5125,
      "count": 15048,
      "type": "SCALAR"
    },
    {
      "bufferView": 2,
      "byteOffset": 141240,
      "componentType": 5126,
      "count": 2988,
      "max": [
        0.5277109742164612,
        0.47031790018081665,
        0.5012826323509216
      ],
      "min": [
        -0.5377855896949768,
        -0.5244067907333374,
        -0.5167809724807739
      ],
      "type": "VEC3"
    },
    {
      "bufferView": 2,
      "byteOffset": 177096,
      "componentType": 5126,
      "count": 2988,
      "max": [
        0.9971189498901367,
        0.9999995827674866,
        0.9996340870857239
      ],
      "min": [
        -0.9989790916442871,
        -0.9999932050704956,
        -0.9999704957008362
      ],
      "type": "VEC3"
    },
    {
      "bufferView": 3,
      "byteOffset": 141088,
      "componentType": 5126,
      "count": 2988,
      "max": [
        0.999994158744812,
        0.9999822378158569,
        0.9541475772857666,
        1.0
      ],
      "min": [
        -0.9357227683067322,
        -0.96588134765625,
        -0.9948544502258301,
        1.0
      ],
      "type": "VEC4"
    },
    {
      "bufferView": 3,
      "byteOffset": 188896,
      "componentType": 5126,
      "count": 2988,
      "max": [
        1.0,
        1.0,
        1.0,
        0.0
      ],
      "min": [
        0.929411768913269,
        0.9333333373069763,
        0.9333333373069763,
        0.0
      ],
      "type": "VEC4"
    },
    {
      "bufferView": 1,
      "byteOffset": 188320,
      "componentType": 5126,
      "count": 2988,
      "max": [
        0.9992376565933228,
        0.683906078338623
      ],
      "min": [
        0.00013168399163987488,
        0.000407607905799523
      ],
      "type": "VEC2"
    },
    {
      "bufferView": 1,
      "byteOffset": 212224,
      "componentType": 5126,
      "count": 2988,
      "max": [
        0.9992376565933228,
        0.683906078338623
      ],
      "min": [
        0.00013168399163987488,
        0.000407607905799523
      ],
      "type": "VEC2"
    },
    {
      "bufferView": 1,
      "byteOffset": 236128,
      "componentType": 5126,
      "count": 2988,
      "max": [
        0.9992376565933228,
        0.683906078338623
      ],
      "min": [
        0.00013168399163987488,
        0.000407607905799523
      ],
      "type": "VEC2"
    },
    {
      "bufferView": 1,
      "byteOffset": 260032,
      "componentType": 5126,
      "count": 2988,
      "max": [
        0.9992376565933228,
        0.683906078338623
      ],
      "min": [
        0.00013168399163987488,
        0.000407607905799523
      ],
      "type": "VEC2"
    },
    {
      "bufferView": 0,
      "byteOffset": 120384,
      "componentType": 5125,
      "count": 15048,
      "type": "SCALAR"
    }
  ],
  "asset": {
    "extras": {
      "author": "Diego_ruiz1 (https://sketchfab.com/Diego_ruiz1)",
      "license": "CC-BY-4.0 (http://creativecommons.org/licenses/by/4.0/)",
      "source": "https://sketchfab.com/3d-models/yuca-26e33def99a14c86a4c7ac6c40b0f254",
      "title": "Yuca"
    },
    "generator": "Sketchfab-14.77.0",
    "version": "2.0"
  },
  "bufferViews": [
    {
      "buffer": 0,
      "byteLength": 180576,
      "name": "floatBufferViews",
      "target": 34963
    },
    {
      "buffer": 0,
      "byteLength": 283936,
      "byteOffset": 180576,
      "byteStride": 8,
      "name": "floatBufferViews",
      "target": 34962
    },
    {
      "buffer": 0,
      "byteLength": 212952,
      "byteOffset": 464512,
      "byteStride": 12,
      "name": "floatBufferViews",
      "target": 34962
    },
    {
      "buffer": 0,
      "byteLength": 236704,
      "byteOffset": 677464,
      "byteStride": 16,
      "name": "floatBufferViews",
      "target": 34962
    }
  ],
  "buffers": [
    {
      "byteLength": 914168,
      "uri": "scene.bin"
    }
  ],
  "extensionsUsed": [
    "KHR_materials_specular"
  ],
  "images": [
    {
      "uri": "textures/material_0_baseColor.png"
    },
    {
      "uri": "textures/material_0_metallicRoughness.png"
    },
    {
      "uri": "textures/material_0_normal.png"
    }
  ],
  "materials": [
    {
      "name": "material_0",
      "normalTexture": {
        "index": 2
      },
      "pbrMetallicRoughness": {
        "baseColorTexture": {
          "index": 0
        },
        "metallicFactor": 0.113567,
        "metallicRoughnessTexture": {
          "index": 1
        },
        "roughnessFactor": 0.00485551
      }
    },
    {
      "extensions": {
        "KHR_materials_specular": {
          "specularColorFactor": [
            1.0,
            1.0,
            1.0
          ],
          "specularFactor": 0.5300889658315945
        }
      },
      "name": "material_1",
      "pbrMetallicRoughness": {
        "baseColorTexture": {
          "index": 0
        },
        "metallicFactor": 0.113567,
        "metallicRoughnessTexture": {
          "index": 1
        },
        "roughnessFactor": 0.5314450869650733
      }
    },
    {
      "extensions": {
        "KHR_materials_specular": {
          "specularColorFactor": [
            1.0,
            1.0,
            1.0
          ],
          "specularFactor": 0.2561734004701662
        }
      },
      "name": "material_2",
      "normalTexture": {
        "index": 2
      },
      "pbrMetallicRoughness": {
        "baseColorTexture": {
          "index": 0
        },
        "metallicFactor": 0.113567,
        "metallicRoughnessTexture": {
          "index": 1
        },
        "roughnessFactor": 0.5870418540535165
      }
    }
  ],
  "meshes": [
    {
      "name": "Object_0",
      "primitives": [
        {
          "attributes": {
            "COLOR_0": 3,
            "NORMAL": 1,
            "POSITION": 0,
            "TANGENT": 2,
            "TEXCOORD_0": 4,
            "TEXCOORD_1": 5,
            "TEXCOORD_2": 6,
            "TEXCOORD_3": 7
          },
          "indices": 8,
          "material": 0,
          "mode": 4
        }
      ]
    },
    {
      "name": "Object_1",
      "primitives": [
        {
          "attributes": {
            "COLOR_0": 11,
            "NORMAL": 10,
            "POSITION": 9,
            "TEXCOORD_0": 12,
            "TEXCOORD_1": 13,
            "TEXCOORD_2": 14,
            "TEXCOORD_3": 15
          },
          "indices": 16,
          "material": 1,
          "mode": 4
        }
      ]
    },
    {
      "name": "Object_2",
      "primitives": [
        {
          "attributes": {
            "COLOR_0": 20,
            "NORMAL": 18,
            "POSITION": 17,
            "TANGENT": 19,
            "TEXCOORD_0": 21,
            "TEXCOORD_1": 22,
            "TEXCOORD_2": 23,
            "TEXCOORD_3": 24
          },
          "indices": 25,
          "material": 2,
          "mode": 4
        }
      ]
    }
  ],
  "nodes": [
    {
      "children": [
        1
      ],
      "matrix": [
        1.0,
        0.0,
        0.0,
        0.0,
        0.0,
        2.220446049250313e-16,
        -1.0,
        0.0,
        0.0,
        1.0,
        2.220446049250313e-16,
        0.0,
        0.0,
        0.0,
        0.0,
        1.0
      ],
      "name": "Sketchfab_model"
    },
    {
      "children": [
        2
      ],
      "name": "root"
    },
    {
      "children": [
        3,
        5,
        7
      ],
      "matrix": [
        1.0,
        0.0,
        0.0,
        0.0,
        0.0,
        2.220446049250313e-16,
        1.0,
        0.0,
        0.0,
        -1.0,
        2.220446049250313e-16,
        0.0,
        0.0,
        0.0,
        0.0,
        1.0
      ],
      "name": "GLTF_SceneRootNode"
    },
    {
      "children": [
        4
      ],
      "matrix": [
        0.0589616522192955,
        -0.9746858477592468,
        -0.08756448328495026,
        0.0,
        -1.4960548877716064,
        -0.0905008390545845,
        3.9642335991629807e-07,
        0.0,
        -0.005287625826895237,
        0.08740469813346863,
        -0.9764676690101624,
        0.0,
        -0.13600653409957886,
        0.7802741527557373,
        -0.4941463768482208,
        1.0
      ],
      "name": "Cylinder 2_0"
    },
    {
      "mesh": 0,
      "name": "Object_4"
    },
    {
      "children": [
        6
      ],
      "matrix": [
        -0.05919848009943962,
        0.9785968661308289,
        0.0,
        0.0,
        -3.0122923851013184,
        -0.18222327530384064,
        0.0,
        0.0,
        0.0,
        0.0,
        0.9803860783576965,
        0.0,
        0.0,
        0.0,
        0.0,
        1.0
      ],
      "name": "Cylinder_1"
    },
    {
      "mesh": 1,
      "name": "Object_6"
    },
    {
      "children": [
        8
      ],
      "matrix": [
        -0.05919848009943962,
        0.9785968661308289,
        0.0,
        0.0,
        -3.0122923851013184,
        -0.18222327530384064,
        0.0,
        0.0,
        0.0,
        0.0,
        0.9803860783576965,
        0.0,
        0.0,
        0.0,
        -0.9353302717208862,
        1.0
      ],
      "name": "Cylinder 1_2"
    },
    {
      "mesh": 2,
      "name": "Object_8"
    }
  ],
  "samplers": [
    {
      "magFilter": 9729,
      "minFilter": 9987,
      "wrapS": 10497,
      "wrapT": 10497
    },
    {
      "magFilter": 9729,
      "minFilter": 9729,
      "wrapS": 10497,
      "wrapT": 10497
    }
  ],
  "scene": 0,
  "scenes": [
    {
      "name": "Sketchfab_Scene",
      "nodes": [
        0
      ]
    }
  ],
  "textures": [
    {
      "sampler": 0,
      "source": 0
    },
    {
      "sampler": 0,
      "source": 1
    },
    {
      "sampler": 1,
      "source": 2
    }
  ]
}
